<mxfile host="app.diagrams.net" modified="2022-11-15T01:45:23.411Z" agent="5.0 (Macintosh; Intel Mac OS X 10_15_7) AppleWebKit/537.36 (KHTML, like Gecko) Chrome/107.0.0.0 Safari/537.36 Edg/107.0.1418.42" etag="PwNqPhHZJTA-KuAurd9n" version="19.0.3" type="github">
  <diagram id="hIDfILfpG7ASzbNMAm96" name="第 1 页">
    <mxGraphModel dx="1170" dy="810" grid="1" gridSize="10" guides="1" tooltips="1" connect="1" arrows="1" fold="1" page="1" pageScale="1" pageWidth="827" pageHeight="1169" math="0" shadow="0">
      <root>
        <mxCell id="0" />
        <mxCell id="1" parent="0" />
        <mxCell id="RLO9QhktXH6sYAkzC8Q1-5" value="" style="shape=image;html=1;verticalAlign=top;verticalLabelPosition=bottom;labelBackgroundColor=#ffffff;imageAspect=0;aspect=fixed;image=https://cdn2.iconfinder.com/data/icons/whcompare-isometric-web-hosting-servers/50/web-browser-on-laptop-128.png;" vertex="1" parent="1">
          <mxGeometry x="570" y="446" width="128" height="128" as="geometry" />
        </mxCell>
        <mxCell id="XtuaLgBbd0wcGy9fLsrO-1" value="" style="shape=cube;whiteSpace=wrap;html=1;boundedLbl=1;backgroundOutline=1;darkOpacity=0.05;darkOpacity2=0.1;size=50;" parent="1" vertex="1">
          <mxGeometry x="240" y="450" width="190" height="120" as="geometry" />
        </mxCell>
        <mxCell id="XtuaLgBbd0wcGy9fLsrO-2" value="" style="shape=cube;whiteSpace=wrap;html=1;boundedLbl=1;backgroundOutline=1;darkOpacity=0.05;darkOpacity2=0.1;fillColor=#b1ddf0;strokeColor=#10739e;" parent="1" vertex="1">
          <mxGeometry x="285" y="460" width="100" height="30" as="geometry" />
        </mxCell>
        <mxCell id="XtuaLgBbd0wcGy9fLsrO-3" value="" style="shape=cube;whiteSpace=wrap;html=1;boundedLbl=1;backgroundOutline=1;darkOpacity=0.05;darkOpacity2=0.1;size=30;fillColor=#647687;strokeColor=#314354;fontColor=#ffffff;" parent="1" vertex="1">
          <mxGeometry x="435" y="430" width="90" height="140" as="geometry" />
        </mxCell>
        <mxCell id="RLO9QhktXH6sYAkzC8Q1-2" value="" style="ellipse;whiteSpace=wrap;html=1;" vertex="1" parent="1">
          <mxGeometry x="440" y="455" width="20" height="40" as="geometry" />
        </mxCell>
        <mxCell id="RLO9QhktXH6sYAkzC8Q1-7" value="" style="curved=1;endArrow=none;html=1;rounded=0;endFill=0;entryX=0.313;entryY=0.5;entryDx=0;entryDy=0;entryPerimeter=0;" edge="1" parent="1" source="XtuaLgBbd0wcGy9fLsrO-3" target="RLO9QhktXH6sYAkzC8Q1-5">
          <mxGeometry width="50" height="50" relative="1" as="geometry">
            <mxPoint x="530" y="520" as="sourcePoint" />
            <mxPoint x="600" y="610" as="targetPoint" />
            <Array as="points">
              <mxPoint x="580" y="540" />
              <mxPoint x="530" y="470" />
            </Array>
          </mxGeometry>
        </mxCell>
        <mxCell id="RLO9QhktXH6sYAkzC8Q1-8" value="" style="endArrow=classic;html=1;rounded=0;" edge="1" parent="1">
          <mxGeometry width="50" height="50" relative="1" as="geometry">
            <mxPoint x="330" y="470" as="sourcePoint" />
            <mxPoint x="330" y="400" as="targetPoint" />
          </mxGeometry>
        </mxCell>
        <mxCell id="RLO9QhktXH6sYAkzC8Q1-9" value="" style="endArrow=classic;html=1;rounded=0;" edge="1" parent="1">
          <mxGeometry width="50" height="50" relative="1" as="geometry">
            <mxPoint x="479.5" y="446" as="sourcePoint" />
            <mxPoint x="480" y="400" as="targetPoint" />
          </mxGeometry>
        </mxCell>
        <mxCell id="RLO9QhktXH6sYAkzC8Q1-10" value="&lt;font style=&quot;font-size: 15px;&quot;&gt;智能手机&lt;/font&gt;" style="text;html=1;strokeColor=none;fillColor=none;align=center;verticalAlign=middle;whiteSpace=wrap;rounded=0;" vertex="1" parent="1">
          <mxGeometry x="295" y="370" width="70" height="30" as="geometry" />
        </mxCell>
        <mxCell id="RLO9QhktXH6sYAkzC8Q1-11" value="&lt;span style=&quot;font-size: 15px;&quot;&gt;音箱&lt;/span&gt;" style="text;html=1;strokeColor=none;fillColor=none;align=center;verticalAlign=middle;whiteSpace=wrap;rounded=0;" vertex="1" parent="1">
          <mxGeometry x="445" y="370" width="70" height="30" as="geometry" />
        </mxCell>
        <mxCell id="RLO9QhktXH6sYAkzC8Q1-12" value="&lt;font style=&quot;font-size: 15px;&quot;&gt;支架&lt;/font&gt;" style="text;html=1;strokeColor=none;fillColor=none;align=center;verticalAlign=middle;whiteSpace=wrap;rounded=0;" vertex="1" parent="1">
          <mxGeometry x="326" y="523" width="70" height="30" as="geometry" />
        </mxCell>
        <mxCell id="RLO9QhktXH6sYAkzC8Q1-13" value="" style="endArrow=classic;html=1;rounded=0;" edge="1" parent="1">
          <mxGeometry width="50" height="50" relative="1" as="geometry">
            <mxPoint x="650" y="486" as="sourcePoint" />
            <mxPoint x="650" y="400" as="targetPoint" />
          </mxGeometry>
        </mxCell>
        <mxCell id="RLO9QhktXH6sYAkzC8Q1-15" value="&lt;span style=&quot;font-size: 15px;&quot;&gt;笔记本电脑&lt;/span&gt;" style="text;html=1;strokeColor=none;fillColor=none;align=center;verticalAlign=middle;whiteSpace=wrap;rounded=0;" vertex="1" parent="1">
          <mxGeometry x="610" y="370" width="80" height="30" as="geometry" />
        </mxCell>
      </root>
    </mxGraphModel>
  </diagram>
</mxfile>
